<?xml version="1.0" standalone="no"?>
<!DOCTYPE svg PUBLIC "-//W3C//DTD SVG 20010904//EN"
 "http://www.w3.org/TR/2001/REC-SVG-20010904/DTD/svg10.dtd">
<svg version="1.0" xmlns="http://www.w3.org/2000/svg"
 width="1056.000000pt" height="1056.000000pt" viewBox="0 0 1056.000000 1056.000000"
 preserveAspectRatio="xMidYMid meet">
<metadata>
Created by potrace 1.14, written by Peter Selinger 2001-2017
</metadata>
<g transform="translate(0.000000,1056.000000) scale(0.100000,-0.100000)"
fill="#000000" stroke="none">
<path d="M1999 10555 c-2 -2 -31 -6 -64 -9 -74 -7 -159 -22 -203 -35 -18 -5
-36 -10 -40 -11 -14 -1 -87 -21 -102 -27 -8 -3 -19 -7 -25 -9 -93 -26 -289
-120 -395 -189 -158 -104 -299 -228 -412 -362 -71 -86 -188 -254 -188 -271 0
-6 -4 -12 -9 -14 -9 -4 -91 -171 -91 -187 0 -6 -5 -11 -12 -11 -6 0 -9 -3 -5
-6 3 -3 -3 -29 -15 -58 -24 -61 -58 -170 -64 -206 -3 -14 -7 -33 -10 -42 -3
-10 -7 -29 -10 -43 -2 -14 -6 -37 -9 -52 -25 -138 -26 -524 -2 -603 2 -8 10
-42 16 -75 7 -33 14 -71 17 -84 3 -13 20 -69 40 -125 19 -55 36 -105 38 -111
1 -5 9 -23 16 -40 7 -16 14 -32 15 -35 16 -49 145 -270 157 -270 4 0 8 -5 8
-12 0 -6 19 -36 42 -67 151 -198 344 -367 553 -487 66 -38 178 -94 200 -100 6
-2 53 -19 105 -37 52 -19 97 -35 100 -35 3 0 25 -6 50 -13 52 -14 68 -17 175
-33 28 -4 61 -10 75 -13 33 -6 311 -6 380 0 66 7 119 15 180 29 25 5 56 12 70
15 35 7 43 9 60 16 8 4 24 8 35 10 11 2 33 9 48 15 15 7 39 15 53 18 13 3 27
10 30 15 3 5 12 9 20 9 32 0 313 150 322 172 2 5 8 8 14 8 6 0 23 10 38 23 15
12 43 33 61 47 56 42 111 91 181 163 73 74 203 233 203 248 0 6 5 13 11 17 6
4 23 30 39 57 15 28 32 53 39 57 6 4 7 8 2 8 -5 0 -3 8 6 18 18 22 99 198 107
234 1 4 8 23 17 43 8 19 11 35 8 35 -4 0 -2 6 4 13 9 11 32 83 37 117 2 8 8
37 14 63 6 26 13 65 16 85 3 20 8 53 11 72 8 47 13 412 5 425 -3 6 -6 21 -7
35 -1 21 -11 82 -29 175 -3 11 -9 38 -15 60 -6 22 -13 47 -15 55 -2 8 -4 16
-5 18 -2 1 -3 5 -5 10 -1 4 -4 14 -7 22 -3 8 -11 33 -18 55 -44 140 -156 345
-271 496 -73 96 -262 293 -272 282 -4 -3 -7 -2 -7 4 0 6 -39 40 -87 75 -126
91 -151 108 -161 108 -5 0 -21 9 -34 20 -14 10 -28 16 -32 13 -3 -3 -6 -1 -6
6 0 7 -4 10 -9 7 -5 -4 -11 -2 -13 3 -5 15 -256 116 -338 136 -27 7 -204 43
-240 50 -39 7 -385 16 -391 10z"/>
<path d="M8097 9944 c-1 -1 -38 -4 -82 -8 -204 -16 -475 -88 -607 -162 -16 -8
-28 -12 -28 -9 0 4 -12 -2 -27 -12 -16 -10 -46 -27 -68 -38 -22 -11 -42 -22
-45 -25 -3 -3 -26 -18 -52 -33 -26 -15 -53 -33 -60 -40 -7 -7 -26 -21 -43 -31
-94 -60 -365 -324 -365 -356 0 -5 -4 -10 -8 -10 -9 0 -92 -117 -92 -130 0 -5
-4 -10 -9 -12 -9 -3 -84 -135 -124 -218 -34 -74 -66 -154 -84 -215 -8 -27 -17
-57 -20 -65 -9 -23 -16 -53 -17 -77 -1 -13 -5 -23 -10 -23 -5 0 -7 -3 -4 -6 4
-3 2 -20 -3 -37 -12 -40 -21 -101 -23 -149 0 -21 -4 -38 -7 -38 -8 0 -3 -403
5 -445 3 -16 8 -44 10 -61 1 -17 6 -36 10 -43 4 -6 5 -15 1 -20 -3 -5 -1 -12
5 -16 6 -4 8 -10 5 -15 -3 -5 -2 -18 4 -28 5 -10 11 -31 14 -47 2 -17 6 -37 9
-45 3 -8 11 -33 18 -55 39 -126 124 -309 189 -410 14 -22 25 -43 26 -47 0 -3
9 -17 20 -30 11 -13 33 -42 49 -66 16 -23 33 -42 37 -42 5 0 9 -6 9 -14 0 -18
224 -248 233 -239 4 3 7 1 7 -5 0 -23 259 -204 348 -243 17 -8 32 -17 32 -21
0 -5 6 -8 13 -8 6 0 37 -12 67 -26 30 -14 62 -28 70 -30 8 -2 53 -17 100 -34
105 -37 307 -80 420 -88 177 -13 329 -6 495 23 55 9 167 38 225 58 36 12 70
22 75 23 6 0 24 7 40 14 17 7 32 14 35 14 3 1 48 22 100 47 52 25 98 46 103
47 4 1 17 10 29 21 11 11 35 27 52 35 18 8 50 29 72 45 51 40 53 41 97 75 21
15 51 40 66 55 15 14 52 49 82 77 30 28 64 64 77 79 51 59 162 203 162 209 0
4 5 12 10 19 19 22 90 137 85 137 -3 0 5 17 18 38 13 20 24 39 24 42 0 3 9 25
20 50 35 79 45 104 68 175 43 129 90 338 84 372 -1 4 -1 10 1 13 9 24 18 320
10 320 -3 0 -6 24 -7 53 -3 92 -8 127 -16 127 -5 0 -6 4 -3 9 5 7 -11 102 -28
169 -3 12 -8 30 -10 40 -4 18 -51 153 -83 239 -10 28 -25 58 -32 67 -8 9 -10
16 -7 16 4 0 -2 13 -13 29 -12 16 -21 32 -21 36 0 12 -102 180 -112 183 -4 2
-8 8 -8 14 0 11 -103 140 -164 207 -79 84 -174 168 -276 244 -60 45 -237 150
-256 153 -9 1 -23 9 -32 18 -10 8 -20 15 -24 15 -5 1 -26 8 -48 17 -21 9 -42
15 -46 14 -4 -1 -10 2 -13 7 -11 16 -229 79 -331 97 -19 3 -46 8 -59 11 -56
11 -354 27 -364 19z"/>
<path d="M8117 4414 c-1 -1 -31 -4 -67 -8 -36 -3 -78 -8 -95 -11 -16 -3 -43
-7 -60 -10 -52 -9 -69 -13 -130 -30 -72 -20 -173 -52 -200 -64 -11 -5 -41 -18
-67 -30 -26 -12 -52 -21 -58 -21 -5 0 -10 -5 -10 -12 0 -6 -3 -8 -7 -5 -3 4
-11 3 -17 -2 -6 -5 -33 -21 -61 -36 -205 -112 -402 -282 -560 -485 -19 -25
-39 -50 -44 -56 -5 -6 -12 -20 -15 -32 -4 -12 -11 -22 -16 -22 -9 0 -69 -99
-68 -114 0 -5 -4 -12 -9 -15 -8 -5 -38 -65 -88 -176 -15 -33 -65 -172 -70
-195 -1 -8 -8 -35 -15 -59 -6 -25 -13 -54 -14 -66 -1 -11 -5 -25 -8 -30 -6
-10 -14 -69 -25 -170 -8 -75 -8 -300 0 -380 13 -137 54 -320 98 -435 11 -30
25 -68 31 -85 32 -88 187 -358 243 -422 5 -7 21 -26 35 -43 36 -45 221 -230
267 -266 22 -18 77 -57 124 -88 46 -31 89 -60 94 -65 23 -18 262 -131 277
-131 9 0 20 -4 23 -10 3 -5 17 -10 30 -10 13 0 27 -5 30 -10 4 -6 11 -8 16 -5
5 4 9 1 9 -5 0 -6 5 -8 10 -5 6 3 16 3 23 -2 6 -4 17 -8 22 -9 16 -3 56 -12
99 -23 22 -5 42 -9 45 -9 3 0 8 -1 11 -2 10 -3 46 -10 90 -16 71 -9 410 -9
465 0 28 5 62 9 78 10 15 0 27 5 27 9 0 5 4 6 9 3 4 -3 23 -1 42 4 19 6 47 13
63 16 16 2 38 10 50 16 11 6 21 10 21 8 0 -2 24 3 53 10 28 8 52 18 52 22 0 5
4 7 9 3 5 -3 12 -1 16 5 3 5 12 10 20 10 27 0 294 136 315 160 3 3 23 17 45
30 22 13 45 29 51 35 6 5 25 21 43 35 68 53 106 87 167 150 101 106 118 124
144 163 14 20 28 37 33 37 4 0 7 7 7 15 0 8 3 15 8 15 4 0 29 37 57 82 27 46
52 85 55 88 6 6 26 50 29 65 1 6 9 17 16 25 7 8 13 17 13 20 0 3 8 25 20 50
60 134 119 342 137 490 12 98 14 124 15 235 1 149 -7 249 -24 330 -2 6 -7 33
-11 60 -11 59 -9 50 -23 101 -41 141 -110 321 -134 349 -4 5 -8 17 -8 26 0 10
-3 19 -7 21 -10 4 -42 57 -50 81 -3 9 -9 17 -14 17 -5 0 -9 6 -9 13 0 7 -7 22
-15 32 -9 11 -37 49 -63 85 -68 93 -86 114 -195 222 -91 91 -224 200 -279 229
-13 7 -25 15 -28 18 -8 10 -83 51 -112 62 -16 6 -28 15 -28 20 0 5 -9 9 -19 9
-11 0 -26 6 -33 13 -7 7 -17 14 -21 14 -8 1 -90 33 -152 58 -16 7 -41 16 -55
19 -14 4 -68 18 -121 31 -53 14 -119 26 -147 27 -29 2 -52 6 -52 9 0 3 -6 6
-12 7 -28 2 -318 8 -321 6z"/>
<path d="M2087 3894 c-1 -1 -33 -5 -72 -8 -108 -10 -154 -17 -215 -33 -14 -3
-32 -7 -40 -9 -8 -1 -33 -8 -55 -14 -22 -6 -47 -12 -55 -15 -18 -4 -110 -37
-160 -56 -30 -12 -87 -40 -272 -136 -16 -8 -28 -19 -28 -24 0 -5 -5 -9 -11 -9
-10 0 -103 -63 -119 -80 -3 -3 -22 -18 -43 -34 -40 -29 -190 -175 -243 -237
-50 -57 -144 -187 -144 -199 0 -6 -7 -13 -15 -16 -8 -4 -12 -10 -9 -15 3 -5 2
-9 -3 -9 -4 0 -13 -10 -19 -23 -6 -12 -37 -72 -68 -134 -31 -61 -56 -118 -56
-127 0 -9 -5 -16 -10 -16 -6 0 -9 -3 -8 -7 0 -5 -2 -15 -5 -23 -13 -33 -57
-182 -62 -212 -3 -17 -8 -34 -10 -38 -2 -3 -7 -29 -11 -56 -3 -27 -8 -51 -9
-54 -25 -42 -25 -527 -1 -601 3 -8 8 -34 11 -59 4 -25 8 -52 9 -60 1 -8 11
-42 21 -75 10 -33 18 -64 17 -68 -1 -4 5 -21 13 -37 8 -16 15 -38 15 -50 0
-11 5 -20 11 -20 5 0 8 -4 5 -9 -3 -4 1 -17 9 -27 8 -10 15 -24 15 -31 0 -12
80 -182 103 -217 55 -89 151 -224 192 -272 139 -164 314 -311 490 -415 102
-59 265 -134 265 -121 0 4 4 2 8 -4 4 -6 52 -25 107 -42 91 -28 120 -36 180
-47 11 -2 31 -6 45 -9 39 -9 111 -18 156 -20 22 -2 44 -5 50 -7 12 -6 220 -3
299 5 100 10 121 13 205 32 14 3 36 7 50 9 14 2 26 4 28 5 1 1 5 3 10 4 20 5
129 38 142 43 8 3 20 7 25 9 75 19 350 160 393 201 7 7 17 13 22 13 5 0 15 6
22 12 7 7 38 32 68 54 90 68 196 168 265 250 27 32 53 61 56 64 16 12 164 239
181 277 10 23 23 45 28 48 4 3 11 19 15 35 4 17 11 30 16 30 5 0 8 3 7 8 -1 6
8 34 29 82 3 8 7 17 7 20 1 3 4 10 8 15 6 10 57 168 63 195 33 158 39 196 51
310 7 74 7 282 0 338 -3 20 -8 62 -11 92 -13 110 -67 324 -100 395 -7 16 -11
33 -9 37 3 4 0 8 -5 8 -6 0 -10 3 -9 8 1 4 -7 25 -17 47 -10 22 -19 42 -19 45
-4 16 -62 126 -68 128 -5 2 -8 8 -8 13 0 12 -119 192 -152 230 -13 15 -43 51
-68 80 -75 89 -197 201 -290 267 -36 26 -66 50 -68 54 -2 5 -7 8 -12 8 -5 0
-44 22 -87 48 -70 44 -251 132 -271 132 -4 0 -19 7 -34 14 -16 8 -40 17 -55
19 -16 3 -39 10 -53 15 -14 6 -63 20 -110 31 -81 18 -127 26 -230 38 -46 5
-288 11 -293 7z"/>
</g>
</svg>
